<?xml version="1.0" encoding="UTF-8"?>
<!DOCTYPE svg PUBLIC "-//W3C//DTD SVG 1.1//EN" "http://www.w3.org/Graphics/SVG/1.1/DTD/svg11.dtd">
<!-- Creator: CorelDRAW 2021 (64-Bit) -->
<svg xmlns="http://www.w3.org/2000/svg" xml:space="preserve" width="169.333mm" height="169.333mm" version="1.1" style="shape-rendering:geometricPrecision; text-rendering:geometricPrecision; image-rendering:optimizeQuality; fill-rule:evenodd; clip-rule:evenodd"
viewBox="0 0 16933.32 16933.32"
 xmlns:xlink="http://www.w3.org/1999/xlink"
 xmlns:xodm="http://www.corel.com/coreldraw/odm/2003">
 <defs>
  <style type="text/css">
   <![CDATA[
    .str11 {stroke:#434242;stroke-width:67.73;stroke-miterlimit:22.9256}
    .str10 {stroke:#2B2A29;stroke-width:67.73;stroke-miterlimit:22.9256}
    .str6 {stroke:#F5B2B6;stroke-width:16.93;stroke-miterlimit:22.9256}
    .str3 {stroke:#EF7F1A;stroke-width:16.93;stroke-miterlimit:22.9256}
    .str8 {stroke:#57A7B3;stroke-width:16.93;stroke-miterlimit:22.9256}
    .str7 {stroke:#7690C9;stroke-width:16.93;stroke-miterlimit:22.9256}
    .str4 {stroke:#2D8CB3;stroke-width:16.93;stroke-miterlimit:22.9256}
    .str9 {stroke:#009846;stroke-width:16.93;stroke-miterlimit:22.9256}
    .str0 {stroke:#AA84C3;stroke-width:16.93;stroke-miterlimit:22.9256}
    .str2 {stroke:#FEFEFE;stroke-width:135.47;stroke-miterlimit:22.9256}
    .str5 {stroke:#FEFEFE;stroke-width:135.47;stroke-miterlimit:22.9256}
    .str1 {stroke:#EF7F1A;stroke-width:135.47;stroke-miterlimit:22.9256}
    .fil2 {fill:none}
    .fil4 {fill:#F5B2B6}
    .fil1 {fill:#EF7F1A}
    .fil6 {fill:#57A7B3}
    .fil5 {fill:#7690C9}
    .fil3 {fill:#2D8CB3}
    .fil7 {fill:#009846}
    .fil0 {fill:#AA84C3}
   ]]>
  </style>
 </defs>
 <g id="Слой_x0020_1">
  <metadata id="CorelCorpID_0Corel-Layer"/>
  <circle class="fil0 str0" cx="8475.13" cy="5700.02" r="5418.66"/>
  <circle class="fil1 str1" cx="8475.13" cy="5700.02" r="805.94"/>
  <polygon class="fil2 str2" points="8475.13,298.5 11043.7,3833.85 13612.28,7369.18 9456.24,8719.57 5300.2,10069.94 5300.2,5700.02 5300.2,1330.11 9456.24,2680.48 13612.28,4030.87 11043.7,7566.2 8475.13,11101.54 5906.56,7566.2 3337.98,4030.87 7494.02,2680.48 11650.06,1330.11 11650.06,5700.02 11650.06,10069.94 7494.02,8719.57 3337.98,7369.18 5906.56,3833.85 "/>
  <circle class="fil1 str3" cx="8478.56" cy="277.93" r="218.67"/>
  <circle class="fil1 str3" cx="11647.9" cy="1313.2" r="218.67"/>
  <circle class="fil1 str3" cx="13612.28" cy="4030.86" r="218.67"/>
  <circle class="fil1 str3" cx="13612.28" cy="7369.18" r="218.67"/>
  <circle class="fil1 str3" cx="11650.06" cy="10069.94" r="218.67"/>
  <circle class="fil1 str3" cx="8475.13" cy="11101.54" r="218.67"/>
  <circle class="fil1 str3" cx="5300.2" cy="10069.94" r="218.66"/>
  <circle class="fil1 str3" cx="3337.98" cy="7369.18" r="218.67"/>
  <circle class="fil1 str3" cx="3337.98" cy="4030.86" r="218.67"/>
  <circle class="fil1 str3" cx="5264.06" cy="1289.78" r="218.67"/>
  <path class="fil0 str0" d="M5404.6 10613.65l0 1897.43c-44.75,-15.15 -92.7,-23.35 -142.57,-23.35 -50.15,0 -98.35,8.31 -143.32,23.62l0 -2107.41c93.65,71.97 188.91,141.95 285.89,209.71z"/>
  <path class="fil0 str0" d="M8607.78 11419.52l0 2091.6c-45.55,-15.75 -94.44,-24.33 -145.35,-24.33 -49.12,0 -96.37,7.98 -140.54,22.69l0 -2090.4c52.49,1.22 105.01,2.32 157.74,2.32 42.84,0 85.46,-1.08 128.15,-1.88z"/>
  <path class="fil0 str0" d="M11817.81 10403.95l0 2107.26c-44.86,-15.22 -92.93,-23.48 -142.93,-23.48 -50,0 -98.06,8.26 -142.92,23.48l0 -1897.59c96.92,-67.76 192.21,-137.68 285.85,-209.67z"/>
  <polygon class="fil2 str2" points="8475.13,2361.71 10062.59,4546.66 11650.06,6731.62 9081.49,7566.19 6512.92,8400.77 6512.92,5700.02 6512.92,2999.27 9081.49,3833.85 11650.06,4668.42 10062.59,6853.38 8475.13,9038.33 6887.67,6853.38 5300.2,4668.42 7868.77,3833.85 10437.34,2999.27 10437.34,5700.02 10437.34,8400.77 7868.77,7566.19 5300.2,6731.62 6887.67,4546.66 "/>
  <circle class="fil1 str3" cx="6512.92" cy="2999.27" r="218.67"/>
  <circle class="fil1 str3" cx="8475.13" cy="2361.71" r="218.67"/>
  <circle class="fil1 str3" cx="10437.34" cy="2999.27" r="218.67"/>
  <circle class="fil1 str3" cx="11650.06" cy="4668.42" r="218.67"/>
  <circle class="fil1 str3" cx="11650.06" cy="6731.62" r="218.67"/>
  <circle class="fil1 str3" cx="10437.34" cy="8400.77" r="218.67"/>
  <circle class="fil1 str3" cx="8475.13" cy="9038.33" r="218.67"/>
  <circle class="fil1 str3" cx="6512.92" cy="8400.77" r="218.67"/>
  <circle class="fil1 str3" cx="5352.62" cy="6659.49" r="218.67"/>
  <circle class="fil1 str3" cx="5300.2" cy="4668.42" r="218.67"/>
  <circle class="fil1 str3" cx="5262.02" cy="12847.56" r="232.83"/>
  <circle class="fil1 str3" cx="8464.84" cy="13821.22" r="232.83"/>
  <circle class="fil1 str3" cx="11674.88" cy="12847.56" r="232.83"/>
  <path class="fil3 str4" d="M11797.51 13171.52c108.88,154.52 185.03,437.39 185.03,920.49 0,483.1 -116.58,1773.94 -286.49,1773.94 -169.92,0 -328.83,-1290.84 -328.83,-1773.94 0,-483.1 76.15,-765.97 185.03,-920.49 36.55,19.54 78.29,30.65 122.63,30.65 44.34,0 86.08,-11.11 122.63,-30.65z"/>
  <path class="fil0 str0" d="M13874.84 7823.53l0 2107.26c-44.86,-15.22 -92.93,-23.48 -142.93,-23.48 -50,0 -98.06,8.26 -142.92,23.48l0 -1897.59c96.92,-67.76 192.21,-137.68 285.85,-209.67z"/>
  <circle class="fil1 str3" cx="13731.91" cy="10267.14" r="232.83"/>
  <path class="fil0 str0" d="M3427.02 8012.07l0 1897.43c-44.75,-15.15 -92.7,-23.35 -142.57,-23.35 -50.15,0 -98.35,8.31 -143.32,23.62l0 -2107.41c93.65,71.97 188.91,141.95 285.89,209.71z"/>
  <circle class="fil1 str3" cx="3284.44" cy="10245.98" r="232.83"/>
  <circle class="fil1 str3" cx="6512.92" cy="4274.4" r="218.67"/>
  <circle class="fil1 str3" cx="6512.92" cy="7050.4" r="218.67"/>
  <circle class="fil1 str3" cx="10437.34" cy="7125.65" r="218.67"/>
  <circle class="fil1 str3" cx="10437.34" cy="4274.4" r="218.67"/>
  <polygon class="fil2 str5" points="8475.13,3815.94 9371.05,5049.08 10266.99,6282.23 8817.34,6753.25 7367.7,7224.26 7367.7,5700.02 7367.7,4175.78 8817.34,4646.79 10266.99,5117.81 9371.05,6350.96 8475.13,7584.1 7579.21,6350.96 6683.27,5117.81 8132.92,4646.79 9582.56,4175.78 9582.56,5700.02 9582.56,7224.26 8132.92,6753.25 6683.27,6282.23 7579.21,5049.08 "/>
  <circle class="fil1 str3" cx="8475.13" cy="3636.84" r="218.67"/>
  <circle class="fil1 str3" cx="8475.13" cy="7763.21" r="218.67"/>
  <path class="fil4 str6" d="M8587.47 14136.69c108.88,154.52 185.03,437.39 185.03,920.49 0,483.1 -116.58,1773.94 -286.49,1773.94 -169.92,0 -328.83,-1290.84 -328.83,-1773.94 0,-483.1 76.15,-765.97 185.03,-920.49 36.55,19.54 78.29,30.65 122.63,30.65 44.34,0 86.08,-11.11 122.63,-30.65z"/>
  <path class="fil5 str7" d="M5384.65 13213.83c108.88,154.52 185.03,437.39 185.03,920.49 0,483.1 -116.58,1773.94 -286.49,1773.94 -169.92,0 -328.83,-1290.84 -328.83,-1773.94 0,-483.1 76.15,-765.97 185.03,-920.49 36.55,19.54 78.29,30.65 122.63,30.65 44.34,0 86.08,-11.11 122.63,-30.65z"/>
  <path class="fil6 str8" d="M3407.07 10580.69c108.88,154.52 185.03,437.39 185.03,920.49 0,483.1 -116.58,1773.94 -286.49,1773.94 -169.92,0 -328.83,-1290.84 -328.83,-1773.94 0,-483.1 76.15,-765.97 185.03,-920.49 36.55,19.54 78.29,30.65 122.63,30.65 44.34,0 86.08,-11.11 122.63,-30.65z"/>
  <path class="fil7 str9" d="M13854.54 10580.69c108.88,154.52 185.03,437.39 185.03,920.49 0,483.1 -116.58,1773.94 -286.49,1773.94 -169.92,0 -328.83,-1290.84 -328.83,-1773.94 0,-483.1 76.15,-765.97 185.03,-920.49 36.55,19.54 78.29,30.65 122.63,30.65 44.34,0 86.08,-11.11 122.63,-30.65z"/>
  <line class="fil2 str10" x1="3276.59" y1="10710.32" x2="3276.59" y2= "12175.05" />
  <line class="fil2 str10" x1="5249.35" y1="13301.12" x2="5249.35" y2= "14765.85" />
  <line class="fil2 str10" x1="8458.21" y1="14249.39" x2="8458.21" y2= "15714.12" />
  <line class="fil2 str10" x1="11675.55" y1="13318.06" x2="11675.55" y2= "14782.79" />
  <line class="fil2 str11" x1="13732.95" y1="10676.46" x2="13732.95" y2= "12141.19" />
 </g>
</svg>
